<svg width="42" height="53" viewBox="0 0 42 53" fill="none" xmlns="http://www.w3.org/2000/svg">
<path d="M9.6 0H0V0.588889V8.94826V29.9184V31.7571C0.396362 31.7855 0.79652 31.8 1.2 31.8C1.33597 31.8 1.47156 31.7984 1.60676 31.7951C10.6972 31.5755 18 24.0158 18 14.7222C18 9.1966 15.4184 4.2839 11.4144 1.16247C11.1598 0.96393 9.86589 0.183745 9.6 0Z" fill="#4AB265"/>
<path d="M19.2 38.8667C31.7921 38.8667 42 30.1661 42 19.4333C42 8.7006 31.7921 0 19.2 0C18.7975 0 18.3974 0.00889054 18 0.026454V0H9.6C9.86589 0.183745 11.1598 0.96393 11.4144 1.16247C15.4184 4.2839 18 9.1966 18 14.7222C18 24.0158 10.6972 31.5755 1.60676 31.7951C1.47156 31.7984 1.33597 31.8 1.2 31.8C0.79652 31.8 0.396362 31.7855 0 31.7571V32.3889C0.639703 32.4641 17.3445 38.8112 18 38.8402C18.3974 38.8578 18.7975 38.8667 19.2 38.8667Z" fill="#159946"/>
<path d="M9 53C13.9706 53 18 49.0452 18 44.1667V38.8402C17.3445 38.8112 0.639703 32.4641 0 32.3889V44.1667C0 49.0452 4.02944 53 9 53Z" fill="#1E5F5B"/>
</svg>
